<?xml version="1.0" encoding="UTF-8" standalone="no"?>
<svg viewBox="0 0 50 50"
 xmlns="http://www.w3.org/2000/svg" xmlns:xlink="http://www.w3.org/1999/xlink" version="1.2" baseProfile="tiny">
<title>Qt SVG Document</title>
<desc>Generated with Qt</desc>
<defs>
</defs>
<g fill="none" stroke="black" stroke-width="1" fill-rule="evenodd" stroke-linecap="square" stroke-linejoin="bevel" >

<g fill="#f28fad" fill-opacity="1" stroke="none" transform="matrix(0.960471,0,0,0.993859,-86.4424,135.196)"
font-family="Noto Sans" font-size="10" font-weight="400" font-style="normal" 
>
<path vector-effect="none" fill-rule="nonzero" d="M90,-136.031 L90,-85.7223 L142.058,-85.7224 L142.058,-124.145 C142.058,-130.731 136.757,-136.031 130.172,-136.031 L90,-136.031"/>
</g>

<g fill="none" stroke="none" transform="matrix(9.44881,0,0,9.77727,-1186.36,-778.863)"
font-family="Noto Sans" font-size="10" font-weight="400" font-style="normal" 
>
<path vector-effect="none" fill-rule="nonzero" d="M127.554,82.8588 L128.836,81.5763"/>
</g>

<g fill="none" stroke="#992d4e" stroke-opacity="1" stroke-width="0.264583" stroke-linecap="round" stroke-linejoin="round" transform="matrix(9.44881,0,0,9.77727,-1186.36,-778.863)"
font-family="Noto Sans" font-size="10" font-weight="400" font-style="normal" 
>
<path vector-effect="none" fill-rule="nonzero" d="M127.554,82.8588 L128.836,81.5763"/>
</g>

<g fill="none" stroke="none" transform="matrix(9.44881,0,0,9.77727,-1186.36,-778.863)"
font-family="Noto Sans" font-size="10" font-weight="400" font-style="normal" 
>
<path vector-effect="none" fill-rule="nonzero" d="M127.554,81.5763 L128.836,82.8588"/>
</g>

<g fill="none" stroke="#9e2e50" stroke-opacity="1" stroke-width="0.264583" stroke-linecap="round" stroke-linejoin="round" transform="matrix(9.44881,0,0,9.77727,-1186.36,-778.863)"
font-family="Noto Sans" font-size="10" font-weight="400" font-style="normal" 
>
<path vector-effect="none" fill-rule="nonzero" d="M127.554,81.5763 L128.836,82.8588"/>
</g>

<g fill="none" stroke="#000000" stroke-opacity="1" stroke-width="1" stroke-linecap="square" stroke-linejoin="bevel" transform="matrix(1,0,0,1,0,0)"
font-family="Noto Sans" font-size="10" font-weight="400" font-style="normal" 
>
</g>
</g>
</svg>
