<?xml version="1.0" encoding="UTF-8" standalone="no"?>
<svg viewBox="0 0 50 50"
 xmlns="http://www.w3.org/2000/svg" xmlns:xlink="http://www.w3.org/1999/xlink" version="1.2" baseProfile="tiny">
<title>Qt SVG Document</title>
<desc>Generated with Qt</desc>
<defs>
</defs>
<g fill="none" stroke="black" stroke-width="1" fill-rule="evenodd" stroke-linecap="square" stroke-linejoin="bevel" >

<g fill="#1a1826" fill-opacity="1" stroke="none" transform="matrix(1.61068,0,0,1.66667,-11.2403,-73.6114)"
font-family="Noto Sans" font-size="10" font-weight="400" font-style="normal" 
>
<rect x="6.97859" y="44.1667" width="31.0428" height="29.9999"/>
</g>

<g fill="#a6e3a1" fill-opacity="1" stroke="none" transform="matrix(9.42161,0,0,9.74914,-1033.85,-879.867)"
font-family="Noto Sans" font-size="10" font-weight="400" font-style="normal" 
>
<circle cx="112.385" cy="92.815" r="1.49908"/>
</g>

<g fill="none" stroke="none" transform="matrix(9.42161,0,0,9.74914,-1033.85,-879.867)"
font-family="Noto Sans" font-size="10" font-weight="400" font-style="normal" 
>
<path vector-effect="none" fill-rule="nonzero" d="M111.738,92.815 L113.033,92.815"/>
</g>

<g fill="none" stroke="#379d2f" stroke-opacity="1" stroke-width="0.264583" stroke-linecap="round" stroke-linejoin="round" transform="matrix(9.42161,0,0,9.74914,-1033.85,-879.867)"
font-family="Noto Sans" font-size="10" font-weight="400" font-style="normal" 
>
<path vector-effect="none" fill-rule="nonzero" d="M111.738,92.815 L113.033,92.815"/>
</g>

<g fill="none" stroke="none" transform="matrix(9.42161,0,0,9.74914,-1033.85,-879.867)"
font-family="Noto Sans" font-size="10" font-weight="400" font-style="normal" 
opacity="0.25" >
<path vector-effect="none" fill-rule="nonzero" d="M112.385,92.1673 L112.385,93.4628"/>
</g>

<g fill="none" stroke="#379d2f" stroke-opacity="1" stroke-width="0.264583" stroke-linecap="round" stroke-linejoin="round" transform="matrix(9.42161,0,0,9.74914,-1033.85,-879.867)"
font-family="Noto Sans" font-size="10" font-weight="400" font-style="normal" 
opacity="0.25" >
<path vector-effect="none" fill-rule="nonzero" d="M112.385,92.1673 L112.385,93.4628"/>
</g>

<g fill="none" stroke="#000000" stroke-opacity="1" stroke-width="1" stroke-linecap="square" stroke-linejoin="bevel" transform="matrix(1,0,0,1,0,0)"
font-family="Noto Sans" font-size="10" font-weight="400" font-style="normal" 
>
</g>
</g>
</svg>
