<?xml version="1.0" encoding="UTF-8" standalone="no"?>
<svg viewBox="0 0 50 50"
 xmlns="http://www.w3.org/2000/svg" xmlns:xlink="http://www.w3.org/1999/xlink" version="1.2" baseProfile="tiny">
<title>Qt SVG Document</title>
<desc>Generated with Qt</desc>
<defs>
</defs>
<g fill="none" stroke="black" stroke-width="1" fill-rule="evenodd" stroke-linecap="square" stroke-linejoin="bevel" >

<g fill="#ff5252" fill-opacity="1" stroke="none" transform="matrix(0.923773,0,0,1.44862,-83.1396,-57.4392)"
font-family="Noto Sans" font-size="10" font-weight="400" font-style="normal" 
>
<rect x="90" y="44.1667" width="45" height="30"/>
</g>

<g fill="#ffffff" fill-opacity="1" stroke="none" transform="matrix(0,-5.47509,3.49143,0,-291.377,-541.749)"
font-family="Noto Sans" font-size="10" font-weight="400" font-style="normal" 
>
<rect x="-105.434" y="87.953" width="0.264583" height="0.529167"/>
</g>

<g fill="#ffffff" fill-opacity="1" stroke="none" transform="matrix(0,-5.47509,3.49143,0,-291.377,-541.749)"
font-family="Noto Sans" font-size="10" font-weight="400" font-style="normal" 
>
<rect x="-105.17" y="88.2176" width="0.264583" height="0.529167"/>
</g>

<g fill="#ffffff" fill-opacity="1" stroke="none" transform="matrix(0,-5.47509,3.49143,0,-291.377,-541.749)"
font-family="Noto Sans" font-size="10" font-weight="400" font-style="normal" 
>
<rect x="-104.905" y="88.4822" width="0.264583" height="0.529167"/>
</g>

<g fill="#ffffff" fill-opacity="1" stroke="none" transform="matrix(0,-5.47509,3.49143,0,-291.377,-541.749)"
font-family="Noto Sans" font-size="10" font-weight="400" font-style="normal" 
>
<rect x="-104.641" y="88.7467" width="0.264583" height="0.529167"/>
</g>

<g fill="#ffffff" fill-opacity="1" stroke="none" transform="matrix(0,-5.47509,3.49143,0,-291.377,-541.749)"
font-family="Noto Sans" font-size="10" font-weight="400" font-style="normal" 
>
<rect x="-104.376" y="89.0113" width="0.264583" height="0.529167"/>
</g>

<g fill="#ffffff" fill-opacity="1" stroke="none" transform="matrix(0,-5.47509,-3.49143,0,332.947,-541.749)"
font-family="Noto Sans" font-size="10" font-weight="400" font-style="normal" 
>
<rect x="-105.434" y="87.953" width="0.264583" height="0.529167"/>
</g>

<g fill="#ffffff" fill-opacity="1" stroke="none" transform="matrix(0,-5.47509,-3.49143,0,332.947,-541.749)"
font-family="Noto Sans" font-size="10" font-weight="400" font-style="normal" 
>
<rect x="-105.17" y="88.2176" width="0.264583" height="0.529167"/>
</g>

<g fill="#ffffff" fill-opacity="1" stroke="none" transform="matrix(0,-5.47509,-3.49143,0,332.947,-541.749)"
font-family="Noto Sans" font-size="10" font-weight="400" font-style="normal" 
>
<rect x="-104.905" y="88.4822" width="0.264583" height="0.529167"/>
</g>

<g fill="#ffffff" fill-opacity="1" stroke="none" transform="matrix(0,-5.47509,-3.49143,0,332.947,-541.749)"
font-family="Noto Sans" font-size="10" font-weight="400" font-style="normal" 
>
<rect x="-104.641" y="88.7467" width="0.264583" height="0.529167"/>
</g>

<g fill="#ffffff" fill-opacity="1" stroke="none" transform="matrix(0,-5.47509,-3.49143,0,332.947,-541.749)"
font-family="Noto Sans" font-size="10" font-weight="400" font-style="normal" 
>
<rect x="-104.376" y="89.0113" width="0.264583" height="0.529167"/>
</g>

<g fill="#ffffff" fill-opacity="1" stroke="none" transform="matrix(0,-5.47509,-3.49143,0,328.328,-548.992)"
font-family="Noto Sans" font-size="10" font-weight="400" font-style="normal" 
>
<rect x="-105.434" y="87.953" width="0.264583" height="0.529167"/>
</g>

<g fill="#ffffff" fill-opacity="1" stroke="none" transform="matrix(0,-5.47509,-3.49143,0,328.328,-548.992)"
font-family="Noto Sans" font-size="10" font-weight="400" font-style="normal" 
>
<rect x="-105.17" y="88.2176" width="0.264583" height="0.529167"/>
</g>

<g fill="#ffffff" fill-opacity="1" stroke="none" transform="matrix(0,-5.47509,-3.49143,0,328.328,-548.992)"
font-family="Noto Sans" font-size="10" font-weight="400" font-style="normal" 
>
<rect x="-104.905" y="88.4822" width="0.264583" height="0.529167"/>
</g>

<g fill="#ffffff" fill-opacity="1" stroke="none" transform="matrix(0,-5.47509,-3.49143,0,328.328,-548.992)"
font-family="Noto Sans" font-size="10" font-weight="400" font-style="normal" 
>
<rect x="-104.641" y="88.7467" width="0.264583" height="0.529167"/>
</g>

<g fill="#ffffff" fill-opacity="1" stroke="none" transform="matrix(0,-5.47509,-3.49143,0,328.328,-548.992)"
font-family="Noto Sans" font-size="10" font-weight="400" font-style="normal" 
>
<rect x="-104.376" y="89.0113" width="0.264583" height="0.529167"/>
</g>

<g fill="#ffffff" fill-opacity="1" stroke="none" transform="matrix(0,-5.47509,3.49143,0,-286.758,-548.992)"
font-family="Noto Sans" font-size="10" font-weight="400" font-style="normal" 
>
<rect x="-105.434" y="87.953" width="0.264583" height="0.529167"/>
</g>

<g fill="#ffffff" fill-opacity="1" stroke="none" transform="matrix(0,-5.47509,3.49143,0,-286.758,-548.992)"
font-family="Noto Sans" font-size="10" font-weight="400" font-style="normal" 
>
<rect x="-105.17" y="88.2176" width="0.264583" height="0.529167"/>
</g>

<g fill="#ffffff" fill-opacity="1" stroke="none" transform="matrix(0,-5.47509,3.49143,0,-286.758,-548.992)"
font-family="Noto Sans" font-size="10" font-weight="400" font-style="normal" 
>
<rect x="-104.905" y="88.4822" width="0.264583" height="0.529167"/>
</g>

<g fill="#ffffff" fill-opacity="1" stroke="none" transform="matrix(0,-5.47509,3.49143,0,-286.758,-548.992)"
font-family="Noto Sans" font-size="10" font-weight="400" font-style="normal" 
>
<rect x="-104.641" y="88.7467" width="0.264583" height="0.529167"/>
</g>

<g fill="#ffffff" fill-opacity="1" stroke="none" transform="matrix(0,-5.47509,3.49143,0,-286.758,-548.992)"
font-family="Noto Sans" font-size="10" font-weight="400" font-style="normal" 
>
<rect x="-104.376" y="89.0113" width="0.264583" height="0.529167"/>
</g>

<g fill="#f8bd96" fill-opacity="1" stroke="none" transform="matrix(9.41481,0,0,9.76317,-1132.71,-777.878)"
font-family="Noto Sans" font-size="10" font-weight="400" font-style="normal" 
>
<rect x="120.315" y="79.6747" width="5.30694" height="5.11389"/>
</g>

<g fill="none" stroke="none" transform="matrix(9.41481,0,0,9.76317,-1132.71,-777.878)"
font-family="Noto Sans" font-size="10" font-weight="400" font-style="normal" 
>
<path vector-effect="none" fill-rule="nonzero" d="M122.307,82.2317 L123.63,82.2317"/>
</g>

<g fill="none" stroke="#bf540d" stroke-opacity="1" stroke-width="0.264583" stroke-linecap="round" stroke-linejoin="round" transform="matrix(9.41481,0,0,9.76317,-1132.71,-777.878)"
font-family="Noto Sans" font-size="10" font-weight="400" font-style="normal" 
>
<path vector-effect="none" fill-rule="nonzero" d="M122.307,82.2317 L123.63,82.2317"/>
</g>

<g fill="none" stroke="#000000" stroke-opacity="1" stroke-width="1" stroke-linecap="square" stroke-linejoin="bevel" transform="matrix(1,0,0,1,0,0)"
font-family="Noto Sans" font-size="10" font-weight="400" font-style="normal" 
>
</g>
</g>
</svg>
